<svg xmlns="http://www.w3.org/2000/svg" aria-hidden="true" style="position:absolute;width:0;height:0;overflow:hidden"><defs>
<symbol id="icon-arrow-circle-broken-right" viewBox="0 0 32 32"><path fill="none" stroke="#fff" stroke-linecap="round" stroke-linejoin="round" stroke-width="2.6" d="M4.45 9.333A13.328 13.328 0 0 1 16 2.666c7.364 0 13.333 5.97 13.333 13.333S23.363 29.332 16 29.332a13.329 13.329 0 0 1-11.55-6.667" style="stroke:var(--color1, #fff)"/><path fill="none" stroke="#fff" stroke-linecap="round" stroke-linejoin="round" stroke-width="2.6" d="M16 21.333 21.333 16 16 10.667M2.667 16h18.667" style="stroke:var(--color1, #fff)"/>
</symbol>
<symbol id="icon-bell-01" viewBox="0 0 32 32"><path fill="none" stroke="#bedbb0" stroke-linecap="round" stroke-linejoin="round" stroke-width="3" d="M12.472 28c.94.83 2.175 1.333 3.528 1.333s2.588-.504 3.528-1.333M24 10.667a8 8 0 1 0-16 0c0 4.12-1.039 6.941-2.2 8.807-.979 1.574-1.469 2.361-1.451 2.58.02.243.071.336.267.481.177.131.974.131 2.569.131h17.63c1.595 0 2.392 0 2.569-.131.196-.145.247-.238.267-.481.018-.22-.472-1.006-1.451-2.58-1.161-1.866-2.2-4.687-2.2-8.807z" style="stroke:var(--color2, #bedbb0)"/>
</symbol>
<symbol id="icon-colors" viewBox="0 0 32 32"><path fill="none" stroke="#fff" stroke-linecap="round" stroke-linejoin="round" stroke-width="2.667" d="M16 27.296a8 8 0 1 0 7.44-13.683m-14.88.001a8 8 0 1 0 9.546 4.773M24 10.667a8 8 0 1 1-16 0 8 8 0 0 1 16 0z" style="stroke:var(--color1, #fff)"/>
</symbol>
<symbol id="icon-container" viewBox="0 0 32 32"><path fill="none" stroke="#fff" stroke-linecap="round" stroke-linejoin="round" stroke-width="2.667" d="M27.333 9.704 16 16m0 0L4.667 9.704M16 16v12.667m12-7.256V10.588c0-.457 0-.685-.067-.889a1.343 1.343 0 0 0-.285-.485c-.145-.158-.345-.269-.744-.491l-9.867-5.481c-.378-.21-.567-.315-.767-.356a1.349 1.349 0 0 0-.537 0c-.2.041-.389.146-.767.356L5.099 8.723c-.399.222-.599.333-.744.491a1.34 1.34 0 0 0-.286.485c-.067.204-.067.432-.067.889v10.823c0 .457 0 .685.067.889.06.18.157.346.286.485.145.158.345.269.744.491l9.867 5.482c.378.21.567.315.767.356.177.036.36.036.537 0 .2-.041.389-.146.767-.356l9.867-5.482c.399-.222.599-.333.744-.491.129-.14.226-.305.285-.485.067-.204.067-.432.067-.889z" style="stroke:var(--color1, #fff)"/>
</symbol>
<symbol id="icon-filter" viewBox="0 0 32 32"><path fill="none" stroke="#fff" stroke-linecap="round" stroke-linejoin="round" stroke-width="3" d="M29.334 4H2.667l10.667 12.613v8.72L18.667 28V16.613L29.334 4z" style="stroke:var(--color1, #fff)"/>
</symbol>
<symbol id="icon-fullLogo" viewBox="0 0 104 32"><path fill="#1f1f1f" d="M24 0H8a8 8 0 0 0-8 8v16a8 8 0 0 0 8 8h16a8 8 0 0 0 8-8V8a8 8 0 0 0-8-8z" style="fill:var(--color3, #1f1f1f)"/><path fill="#fff" d="M13.331 23.027c.245-1.272.453-2.61.747-3.949.145-.701-.032-.999-.815-.946s-1.657.027-2.49 0c-.833-.027-.982-.446-.502-1.044 2.363-2.918 4.753-5.8 7.134-8.674.267-.326.575-.558 1.014-.312s.349.549.276.915c-.263 1.339-.48 2.677-.77 3.989-.149.678.045.919.751.892a20.959 20.959 0 0 1 2.127 0c.403 0 .933-.21 1.141.339s-.231.781-.453 1.107a315.559 315.559 0 0 1-2.752 3.342 1579.8 1579.8 0 0 0-4.051 4.854c-.263.317-.557.571-1.005.41s-.353-.54-.353-.924zM48.704 10.832v1.808h-2.976V22h-2.24v-9.36h-2.976v-1.808h8.192zm.418 6.704c0-.896.176-1.691.528-2.384.363-.693.848-1.227 1.456-1.6a3.922 3.922 0 0 1 2.064-.56c.661 0 1.237.133 1.728.4.501.267.901.603 1.2 1.008v-1.264h2.256V22h-2.256v-1.296c-.288.416-.688.763-1.2 1.04-.501.267-1.083.4-1.744.4a3.807 3.807 0 0 1-2.048-.576c-.608-.384-1.093-.923-1.456-1.616-.352-.704-.528-1.509-.528-2.416zm6.976.032c0-.544-.107-1.008-.32-1.392a2.185 2.185 0 0 0-.864-.896c-.363-.213-.752-.32-1.168-.32s-.8.101-1.152.304c-.352.203-.64.501-.864.896-.213.384-.32.843-.32 1.376s.107 1.003.32 1.408c.224.395.512.699.864.912.363.213.747.32 1.152.32.416 0 .805-.101 1.168-.304a2.32 2.32 0 0 0 .864-.896c.213-.395.32-.864.32-1.408zm7.196 4.576c-.725 0-1.376-.128-1.952-.384-.576-.267-1.035-.624-1.376-1.072a2.725 2.725 0 0 1-.544-1.488h2.256c.043.341.208.624.496.848.299.224.667.336 1.104.336.427 0 .757-.085.992-.256.245-.171.368-.389.368-.656 0-.288-.149-.501-.448-.64-.288-.149-.752-.309-1.392-.48a12.242 12.242 0 0 1-1.632-.496 2.902 2.902 0 0 1-1.088-.784c-.299-.352-.448-.827-.448-1.424 0-.491.139-.939.416-1.344.288-.405.693-.725 1.216-.96.533-.235 1.157-.352 1.872-.352 1.056 0 1.899.267 2.528.8.629.523.976 1.232 1.04 2.128h-2.144a1.124 1.124 0 0 0-.448-.832c-.256-.213-.603-.32-1.04-.32-.405 0-.72.075-.944.224a.72.72 0 0 0-.32.624c0 .299.149.528.448.688.299.149.763.304 1.392.464.64.16 1.168.325 1.584.496s.773.437 1.072.8c.309.352.469.821.48 1.408 0 .512-.144.971-.432 1.376-.277.405-.683.725-1.216.96-.523.224-1.136.336-1.84.336zM73.229 22l-3.008-3.776V22h-2.24V10.16h2.24v6.736l2.976-3.76h2.912l-3.904 4.448L76.141 22h-2.912zm14.772-7.712c0 .597-.144 1.157-.432 1.68-.277.523-.72.944-1.328 1.264-.597.32-1.355.48-2.272.48h-1.872V22h-2.24V10.832h4.112c.864 0 1.6.149 2.208.448s1.061.709 1.36 1.232c.309.523.464 1.115.464 1.776zm-4.128 1.616c.619 0 1.077-.139 1.376-.416.299-.288.448-.688.448-1.2 0-1.088-.608-1.632-1.824-1.632h-1.776v3.248h1.776zm7.319-1.392a3.173 3.173 0 0 1 1.12-1.104c.469-.267 1.003-.4 1.6-.4v2.352h-.592c-.704 0-1.237.165-1.6.496-.352.331-.528.907-.528 1.728V22h-2.24v-8.864h2.24v1.376zm7.524 7.632c-.853 0-1.621-.187-2.304-.56a4.203 4.203 0 0 1-1.616-1.616c-.384-.693-.576-1.493-.576-2.4s.197-1.707.592-2.4a4.168 4.168 0 0 1 1.648-1.6c.693-.384 1.467-.576 2.32-.576s1.627.192 2.32.576a4.053 4.053 0 0 1 1.632 1.6c.406.693.608 1.493.608 2.4s-.208 1.707-.624 2.4a4.252 4.252 0 0 1-1.664 1.616c-.693.373-1.472.56-2.336.56zm0-1.952c.405 0 .784-.096 1.136-.288.363-.203.651-.501.864-.896.214-.395.32-.875.32-1.44 0-.843-.224-1.488-.672-1.936-.437-.459-.976-.688-1.616-.688s-1.179.229-1.616.688c-.427.448-.64 1.093-.64 1.936s.208 1.493.624 1.952c.427.448.96.672 1.6.672z" style="fill:var(--color1, #fff)"/>
</symbol>
<symbol id="icon-hexagon-01" viewBox="0 0 32 32"><path fill="none" stroke="#fff" stroke-linecap="round" stroke-linejoin="round" stroke-width="2.667" d="M14.964 3.242c.378-.21.567-.315.767-.356.177-.036.36-.036.537 0 .2.041.389.146.767.356l9.867 5.482c.399.222.599.333.744.491.129.14.226.305.285.485.067.204.067.432.067.889v10.823c0 .457 0 .685-.067.889-.06.18-.157.346-.285.485-.145.158-.345.269-.744.491l-9.867 5.482c-.378.21-.567.315-.767.356-.177.036-.36.036-.537 0-.2-.041-.389-.146-.767-.356l-9.867-5.482c-.399-.222-.599-.333-.744-.491a1.34 1.34 0 0 1-.286-.485C4 22.097 4 21.869 4 21.412V10.589c0-.457 0-.685.067-.889.06-.18.157-.346.286-.485.145-.158.345-.269.744-.491l9.867-5.481z" style="stroke:var(--color1, #fff)"/>
</symbol>
<symbol id="icon-icon" viewBox="0 0 32 32"><path fill="#1f1f1f" d="M24 0H8a8 8 0 0 0-8 8v16a8 8 0 0 0 8 8h16a8 8 0 0 0 8-8V8a8 8 0 0 0-8-8z" style="fill:var(--color3,#1f1f1f)"/><path fill="#fff" d="M13.331 23.027c.245-1.272.453-2.61.747-3.949.145-.701-.032-.999-.815-.946s-1.657.027-2.49 0c-.833-.027-.982-.446-.502-1.044 2.363-2.918 4.753-5.8 7.134-8.674.267-.326.575-.558 1.014-.312s.349.549.276.915c-.263 1.339-.48 2.677-.77 3.989-.149.678.045.919.751.892a20.959 20.959 0 0 1 2.127 0c.403 0 .933-.21 1.141.339s-.231.781-.453 1.107a315.559 315.559 0 0 1-2.752 3.342 1579.8 1579.8 0 0 0-4.051 4.854c-.263.317-.557.571-1.005.41s-.353-.54-.353-.924z" style="fill:var(--color1, #fff)"/>
</symbol>
<symbol id="icon-lightning-02" viewBox="0 0 32 32"><path fill="none" stroke="#fff" stroke-linecap="round" stroke-linejoin="round" stroke-width="2.667" d="M18.999 2.667h-7.674c-.239 0-.359 0-.465.036a.672.672 0 0 0-.249.154c-.08.078-.133.185-.24.399l-5.6 11.2c-.256.511-.383.767-.353.974a.669.669 0 0 0 .277.449c.172.12.458.12 1.029.12h8.274l-4 13.333 16.258-16.86c.548-.569.823-.853.839-1.097a.665.665 0 0 0-.235-.553c-.186-.157-.581-.157-1.372-.157h-9.49l3-8z" style="stroke:var(--color1, #fff)"/>
</symbol>
<symbol id="icon-loading-03" viewBox="0 0 32 32"><path fill="none" stroke="#fff" stroke-linecap="round" stroke-linejoin="round" stroke-width="2.667" d="M4.454 22.666a6.364 6.364 0 0 1 1.944-8.453l.003-.003a6.37 6.37 0 0 1 7.312.126l4.576 3.327a6.37 6.37 0 0 0 7.312.126l.003-.003a6.36 6.36 0 0 0 1.943-8.453m-4.878 18.213a6.365 6.365 0 0 1-8.453-1.944l-.003-.003a6.37 6.37 0 0 1 .126-7.312l3.327-4.576a6.37 6.37 0 0 0 .126-7.312l-.006-.003a6.363 6.363 0 0 0-8.453-1.942m16.094 2.118c5.207 5.207 5.207 13.648 0 18.855s-13.648 5.207-18.855 0c-5.207-5.207-5.207-13.648 0-18.855s13.648-5.207 18.855 0z" style="stroke:var(--color1, #fff)"/>
</symbol>
<symbol id="icon-normalBtn" viewBox="0 0 197 32"><path fill="#bedbb0" d="M5.224 0h186.775a5.225 5.225 0 0 1 5.225 5.224v21.551a5.224 5.224 0 0 1-5.225 5.224H5.224A5.224 5.224 0 0 1 0 26.775V5.224A5.224 5.224 0 0 1 5.224 0z" style="fill:var(--color2, #bedbb0)"/><path fill="#161616" d="M86.204 6.531H75.755a3.918 3.918 0 0 0-3.918 3.918v10.449a3.918 3.918 0 0 0 3.918 3.918h10.449a3.918 3.918 0 0 0 3.918-3.918V10.449a3.918 3.918 0 0 0-3.918-3.918zM95.685 15.421c0-.622.143-1.179.43-1.673a3.104 3.104 0 0 1 1.179-1.152c.5-.28 1.046-.421 1.637-.421.677 0 1.277.168 1.801.503.53.329.914.799 1.152 1.408h-1.253c-.165-.335-.393-.585-.686-.75s-.631-.247-1.015-.247c-.421 0-.795.095-1.125.283s-.588.46-.777.814c-.183.354-.274.765-.274 1.234s.091.881.274 1.234c.189.354.448.628.777.823.329.189.704.283 1.125.283.384 0 .722-.082 1.015-.247s.521-.415.686-.75h1.253a2.806 2.806 0 0 1-1.152 1.408c-.524.329-1.125.494-1.801.494a3.316 3.316 0 0 1-1.637-.411 3.157 3.157 0 0 1-1.179-1.161 3.267 3.267 0 0 1-.43-1.673zm8.278-1.115c.152-.256.353-.454.603-.594.256-.146.558-.219.905-.219v1.079h-.265c-.408 0-.719.104-.933.311-.207.207-.311.567-.311 1.079v2.651h-1.042v-5.038h1.042v.731zm6.901 1.664c0 .189-.012.36-.037.512h-3.849c.031.402.18.725.448.969s.598.366.987.366c.561 0 .957-.235 1.189-.704h1.125c-.152.463-.43.844-.832 1.143-.396.293-.889.439-1.481.439-.481 0-.914-.107-1.298-.32a2.392 2.392 0 0 1-.896-.914c-.213-.396-.32-.853-.32-1.371s.104-.972.311-1.362c.214-.396.509-.701.887-.914a2.67 2.67 0 0 1 1.317-.32c.475 0 .899.104 1.271.311s.662.5.869.878c.208.372.311.802.311 1.289zm-1.088-.329c-.006-.384-.143-.692-.411-.923s-.6-.347-.997-.347a1.33 1.33 0 0 0-.923.347c-.256.226-.408.533-.457.923h2.789zm1.584.43c0-.506.103-.954.311-1.344a2.32 2.32 0 0 1 2.066-1.234c.396 0 .741.079 1.033.238.298.152.536.344.713.576v-.731h1.051v5.038h-1.051v-.75c-.177.238-.418.436-.722.594s-.652.238-1.042.238c-.433 0-.829-.11-1.189-.329a2.428 2.428 0 0 1-.859-.933 2.92 2.92 0 0 1-.311-1.362zm4.123.018c0-.347-.073-.649-.219-.905a1.472 1.472 0 0 0-1.308-.786c-.268 0-.519.067-.75.201-.232.128-.421.32-.567.576-.14.25-.21.549-.21.896s.07.652.21.914c.146.262.335.463.567.603a1.504 1.504 0 0 0 1.5 0 1.48 1.48 0 0 0 .558-.585c.146-.262.219-.567.219-.914zm3.454-1.664v2.789c0 .189.042.326.128.411.091.079.244.119.457.119h.64v.869h-.823c-.47 0-.829-.11-1.079-.329s-.375-.576-.375-1.07v-2.789h-.594v-.85h.594v-1.253h1.051v1.253h1.225v.85h-1.225zm6.62 1.545c0 .189-.012.36-.037.512h-3.849c.031.402.18.725.448.969s.598.366.987.366c.561 0 .957-.235 1.189-.704h1.125c-.152.463-.43.844-.832 1.143-.396.293-.89.439-1.481.439-.481 0-.914-.107-1.298-.32a2.385 2.385 0 0 1-.896-.914c-.214-.396-.32-.853-.32-1.371s.104-.972.311-1.362c.214-.396.509-.701.887-.914a2.67 2.67 0 0 1 1.317-.32c.475 0 .899.104 1.271.311s.662.5.869.878c.207.372.311.802.311 1.289zm-1.088-.329c-.006-.384-.143-.692-.411-.923s-.6-.347-.997-.347c-.36 0-.667.116-.923.347-.256.226-.408.533-.457.923h2.789z" style="fill:var(--color4, #161616)"/>
</symbol>
<symbol id="icon-normalBtnBlack" viewBox="0 0 32 32"><path d="M25.143 0H6.857A6.857 6.857 0 0 0 0 6.857v18.286A6.857 6.857 0 0 0 6.857 32h18.286A6.857 6.857 0 0 0 32 25.143V6.857A6.857 6.857 0 0 0 25.143 0z"/><path fill="none" stroke="#fff" stroke-linecap="round" stroke-linejoin="round" stroke-width="1.143" d="M16 11.333v9.333M11.333 16h9.333" style="stroke:var(--color1, #fff)"/>
</symbol>
<symbol id="icon-normalPlus" viewBox="0 0 36 32"><path fill="#bedbb0" d="M5.333 0h24.889a5.333 5.333 0 0 1 5.333 5.333v21.333a5.333 5.333 0 0 1-5.333 5.333H5.333A5.333 5.333 0 0 1 0 26.666V5.333A5.333 5.333 0 0 1 5.333 0z" style="fill:var(--color2, #bedbb0)"/><path fill="none" stroke="#121212" stroke-linecap="round" stroke-linejoin="round" stroke-width="1.6" d="M17.778 10.815v10.37M12.592 16h10.37" style="stroke:var(--color5, #121212)"/>
</symbol>
<symbol id="icon-pencil-01" viewBox="0 0 32 32"><path fill="none" stroke="#fff" stroke-linecap="round" stroke-linejoin="round" stroke-width="2.6" d="m3.333 28.667 7.399-2.846c.473-.182.71-.273.931-.392.197-.106.384-.227.56-.364.199-.154.378-.333.736-.692l15.04-15.04A3.77 3.77 0 1 0 22.666 4L7.626 19.04c-.359.359-.538.538-.692.736a3.948 3.948 0 0 0-.364.56c-.119.221-.21.458-.392.931l-2.846 7.399zm0 0 2.744-7.135c.196-.511.295-.766.463-.883a.665.665 0 0 1 .505-.107c.201.038.395.232.782.619l3.012 3.012c.387.387.58.58.619.782a.665.665 0 0 1-.107.505c-.117.168-.372.267-.883.463l-7.135 2.744z" style="stroke:var(--color1, #fff)"/>
</symbol>
<symbol id="icon-Project" viewBox="0 0 32 32"><path fill="none" stroke="#fff" stroke-width="2.667" d="M4.396 6.978a3.465 3.465 0 0 1 2.582-2.582 7.408 7.408 0 0 1 3.377 0 3.465 3.465 0 0 1 2.582 2.582c.26 1.11.26 2.266 0 3.377a3.465 3.465 0 0 1-2.582 2.582c-1.11.26-2.266.26-3.377 0a3.465 3.465 0 0 1-2.582-2.582 7.408 7.408 0 0 1 0-3.377zM4.396 21.645a3.465 3.465 0 0 1 2.582-2.582 7.38 7.38 0 0 1 3.377 0 3.464 3.464 0 0 1 2.582 2.582 7.408 7.408 0 0 1 0 3.377 3.465 3.465 0 0 1-2.582 2.582 7.38 7.38 0 0 1-3.377 0 3.464 3.464 0 0 1-2.582-2.582 7.408 7.408 0 0 1 0-3.377zM19.063 6.978a3.464 3.464 0 0 1 2.582-2.582 7.408 7.408 0 0 1 3.377 0 3.465 3.465 0 0 1 2.582 2.582 7.38 7.38 0 0 1 0 3.377 3.464 3.464 0 0 1-2.582 2.582 7.408 7.408 0 0 1-3.377 0 3.465 3.465 0 0 1-2.582-2.582 7.38 7.38 0 0 1 0-3.377zM19.063 21.645a3.464 3.464 0 0 1 2.582-2.582 7.38 7.38 0 0 1 3.377 0 3.464 3.464 0 0 1 2.582 2.582 7.38 7.38 0 0 1 0 3.377 3.464 3.464 0 0 1-2.582 2.582 7.38 7.38 0 0 1-3.377 0 3.464 3.464 0 0 1-2.582-2.582 7.38 7.38 0 0 1 0-3.377z" style="stroke:var(--color1, #fff)"/>
</symbol>
<symbol id="icon-puzzle-piece-02" viewBox="0 0 32 32"><path fill="none" stroke="#fff" stroke-linecap="round" stroke-linejoin="round" stroke-width="2.667" d="m16 2.667 4.8 4.8C24-.933 32.933 8 24.533 11.2l4.8 4.8-4.8 4.8c-3.2-8.4-12.133.533-3.733 3.733l-4.8 4.8-4.8-4.8C8 32.933-.933 24 7.467 20.8l-4.8-4.8 4.8-4.8c3.2 8.4 12.133-.533 3.733-3.733l4.8-4.8z" style="stroke:var(--color1, #fff)"/>
</symbol>
<symbol id="icon-star-04" viewBox="0 0 32 32"><path fill="none" stroke="#fff" stroke-linecap="round" stroke-linejoin="round" stroke-width="2.667" d="m16 2.667 2.683 6.975c.376.978.564 1.466.856 1.878.259.364.577.683.942.942.411.292.9.48 1.878.856l6.975 2.683-6.975 2.683c-.978.376-1.466.564-1.878.856a3.993 3.993 0 0 0-.942.942c-.292.411-.48.9-.856 1.878L16 29.335l-2.683-6.975c-.376-.978-.564-1.466-.856-1.878a4.012 4.012 0 0 0-.942-.942c-.411-.292-.9-.48-1.878-.856l-6.975-2.683 6.975-2.683c.978-.376 1.466-.564 1.878-.856.364-.259.683-.578.942-.942.292-.411.48-.9.856-1.878L16 2.667z" style="stroke:var(--color1, #fff)"/>
</symbol>
<symbol id="icon-Task-Pro" viewBox="0 0 158 32"><path fill="#fff" d="M21.425 2.048v4.45h-7.326v23.04H8.585V6.498H1.259v-4.45h20.165zm1.03 16.502c0-2.206.433-4.162 1.3-5.868.893-1.707 2.087-3.019 3.584-3.938 1.523-.919 3.216-1.378 5.081-1.378 1.628 0 3.046.328 4.254.985 1.234.656 2.219 1.483 2.954 2.481V7.721h5.553V29.54h-5.553v-3.19c-.709 1.024-1.694 1.877-2.954 2.56-1.234.657-2.665.985-4.293.985-1.838 0-3.519-.473-5.041-1.418-1.497-.945-2.691-2.271-3.584-3.978-.866-1.733-1.3-3.715-1.3-5.947zm17.172.079c0-1.339-.263-2.481-.788-3.426-.525-.972-1.234-1.707-2.127-2.206-.893-.525-1.851-.788-2.875-.788s-1.969.249-2.836.748c-.866.499-1.575 1.234-2.127 2.206-.525.945-.788 2.074-.788 3.387s.262 2.468.788 3.466c.551.971 1.26 1.72 2.127 2.245a5.508 5.508 0 0 0 2.836.788 5.799 5.799 0 0 0 2.875-.748c.893-.525 1.601-1.26 2.127-2.206.525-.971.788-2.127.788-3.466zm17.712 11.264c-1.785 0-3.387-.315-4.805-.945-1.418-.657-2.547-1.536-3.387-2.639a6.718 6.718 0 0 1-1.339-3.663h5.553c.105.84.512 1.536 1.221 2.087.735.551 1.641.827 2.718.827 1.05 0 1.864-.21 2.442-.63.604-.42.906-.958.906-1.615 0-.709-.367-1.234-1.103-1.575-.709-.368-1.851-.761-3.426-1.182-1.628-.394-2.967-.801-4.017-1.221a7.13 7.13 0 0 1-2.678-1.93c-.735-.866-1.103-2.035-1.103-3.505 0-1.208.341-2.311 1.024-3.308.709-.998 1.707-1.785 2.993-2.363 1.313-.578 2.849-.866 4.608-.866 2.599 0 4.674.656 6.223 1.969 1.549 1.287 2.402 3.033 2.56 5.238h-5.278c-.079-.866-.446-1.549-1.103-2.048-.63-.525-1.483-.788-2.56-.788-.998 0-1.772.184-2.324.551-.525.368-.788.88-.788 1.536 0 .735.368 1.3 1.103 1.694.735.368 1.877.748 3.426 1.142 1.575.394 2.875.801 3.899 1.221s1.904 1.076 2.639 1.969c.762.866 1.155 2.022 1.182 3.466 0 1.26-.354 2.389-1.063 3.387-.683.998-1.68 1.785-2.993 2.363-1.286.551-2.796.827-4.529.827zm24.455-.355-7.404-9.295v9.295h-5.514V.393h5.514v16.581l7.326-9.255h7.168l-9.61 10.949 9.689 10.87h-7.168zm36.363-18.983c0 1.47-.354 2.849-1.063 4.135-.683 1.287-1.772 2.324-3.269 3.111-1.47.788-3.334 1.182-5.593 1.182h-4.608v10.555H98.11V2.048h10.122c2.127 0 3.938.368 5.435 1.103s2.613 1.746 3.348 3.033c.762 1.287 1.142 2.744 1.142 4.372zm-10.162 3.978c1.523 0 2.652-.341 3.387-1.024.735-.709 1.103-1.694 1.103-2.954 0-2.678-1.497-4.017-4.49-4.017h-4.372v7.995h4.372zm18.015-3.427a7.813 7.813 0 0 1 2.757-2.718c1.155-.656 2.468-.985 3.938-.985v5.79h-1.457c-1.733 0-3.046.407-3.938 1.221-.866.814-1.3 2.232-1.3 4.254v10.87h-5.514V7.719h5.514v3.387zm18.522 18.787c-2.101 0-3.991-.46-5.671-1.378-1.68-.945-3.007-2.271-3.978-3.978-.945-1.707-1.418-3.676-1.418-5.908s.486-4.201 1.457-5.908c.998-1.707 2.35-3.019 4.057-3.938 1.707-.945 3.61-1.418 5.711-1.418s4.004.473 5.711 1.418c1.707.919 3.046 2.232 4.017 3.938.998 1.707 1.497 3.676 1.497 5.908s-.512 4.201-1.536 5.908a10.463 10.463 0 0 1-4.096 3.978c-1.707.919-3.623 1.378-5.75 1.378zm0-4.805c.998 0 1.93-.236 2.796-.709.893-.499 1.601-1.234 2.127-2.206s.788-2.153.788-3.545c0-2.074-.551-3.663-1.654-4.766-1.077-1.129-2.402-1.694-3.978-1.694s-2.901.565-3.978 1.694c-1.05 1.103-1.575 2.691-1.575 4.766s.512 3.676 1.536 4.805c1.05 1.103 2.363 1.654 3.938 1.654z" style="fill:var(--color1, #fff)"/>
</symbol>
<symbol id="icon-trash-04" viewBox="0 0 32 32"><path fill="none" stroke="#fff" stroke-linecap="round" stroke-linejoin="round" stroke-width="2.6" d="M12 4h8M4 8h24M6.667 8l.801 12.018c.149 2.231.223 3.347.588 4.243a6 6 0 0 0 3.672 3.435c.919.304 2.037.304 4.273.304v0c2.236 0 3.354 0 4.273-.304a6 6 0 0 0 3.672-3.435c.365-.896.439-2.012.588-4.243L25.335 8" style="stroke:var(--color1, #fff)"/>
</symbol>
</defs></svg>